<svg xmlns="http://www.w3.org/2000/svg" xmlns:xlink="http://www.w3.org/1999/xlink" width="600" zoomAndPan="magnify" viewBox="0 0 450 299.999988" height="400" preserveAspectRatio="xMidYMid meet" version="1.0"><defs><clipPath id="c8ca1c1e58"><path d="M 27.390625 44.09375 L 422.640625 44.09375 L 422.640625 299.84375 L 27.390625 299.84375 Z M 27.390625 44.09375 " clip-rule="nonzero"/></clipPath><clipPath id="86184c6e22"><path d="M 205 0 L 246 0 L 246 40.5 L 205 40.5 Z M 205 0 " clip-rule="nonzero"/></clipPath></defs><g clip-path="url(#c8ca1c1e58)"><path fill="#ffffff" d="M 364.484375 299.90625 C 362.1875 299.90625 359.945312 299.230469 358.035156 297.957031 L 291.222656 253.414062 L 39.011719 253.414062 C 32.59375 253.414062 27.390625 248.207031 27.390625 241.789062 L 27.390625 55.804688 C 27.390625 49.386719 32.59375 44.179688 39.011719 44.179688 L 410.980469 44.179688 C 417.398438 44.179688 422.605469 49.386719 422.605469 55.804688 L 422.605469 241.789062 C 422.605469 248.207031 417.398438 253.414062 410.980469 253.414062 L 376.109375 253.414062 L 376.109375 288.285156 C 376.109375 294.703125 370.902344 299.90625 364.484375 299.90625 Z M 50.636719 230.164062 L 294.738281 230.164062 C 297.035156 230.164062 299.277344 230.84375 301.1875 232.117188 L 352.859375 266.585938 L 352.859375 241.789062 C 352.859375 235.367188 358.0625 230.164062 364.484375 230.164062 L 399.355469 230.164062 L 399.355469 67.429688 L 50.636719 67.429688 Z M 50.636719 230.164062 " fill-opacity="1" fill-rule="nonzero"/></g><path fill="#ffffff" d="M 97.132812 160.421875 L 73.882812 160.421875 C 67.464844 160.421875 62.261719 155.214844 62.261719 148.796875 L 62.261719 102.300781 C 62.261719 95.882812 67.464844 90.675781 73.882812 90.675781 L 97.132812 90.675781 C 116.390625 90.675781 132.003906 106.289062 132.003906 125.546875 C 132.003906 144.808594 116.390625 160.421875 97.132812 160.421875 Z M 85.507812 137.171875 L 97.132812 137.171875 C 103.550781 137.171875 108.757812 131.96875 108.757812 125.546875 C 108.757812 119.128906 103.550781 113.925781 97.132812 113.925781 L 85.507812 113.925781 Z M 85.507812 137.171875 " fill-opacity="1" fill-rule="nonzero"/><path fill="#ffffff" d="M 97.132812 206.917969 L 73.882812 206.917969 C 67.464844 206.917969 62.261719 201.710938 62.261719 195.292969 L 62.261719 148.796875 C 62.261719 142.378906 67.464844 137.171875 73.882812 137.171875 L 97.132812 137.171875 C 116.390625 137.171875 132.003906 152.785156 132.003906 172.042969 C 132.003906 191.304688 116.390625 206.917969 97.132812 206.917969 Z M 85.507812 183.667969 L 97.132812 183.667969 C 103.550781 183.667969 108.757812 178.464844 108.757812 172.042969 C 108.757812 165.625 103.550781 160.421875 97.132812 160.421875 L 85.507812 160.421875 Z M 85.507812 183.667969 " fill-opacity="1" fill-rule="nonzero"/><path fill="#ffffff" d="M 190.125 206.917969 L 155.253906 206.917969 C 148.832031 206.917969 143.628906 201.710938 143.628906 195.292969 L 143.628906 102.300781 C 143.628906 95.882812 148.832031 90.675781 155.253906 90.675781 C 161.671875 90.675781 166.875 95.882812 166.875 102.300781 L 166.875 183.667969 L 190.125 183.667969 C 196.542969 183.667969 201.75 188.871094 201.75 195.292969 C 201.75 201.710938 196.542969 206.917969 190.125 206.917969 Z M 190.125 206.917969 " fill-opacity="1" fill-rule="nonzero"/><path fill="#ffffff" d="M 248.242188 206.917969 C 228.992188 206.894531 213.394531 191.292969 213.371094 172.042969 L 213.371094 125.546875 C 213.371094 106.289062 228.984375 90.675781 248.242188 90.675781 C 267.503906 90.675781 283.117188 106.289062 283.117188 125.546875 L 283.117188 172.042969 C 283.09375 191.292969 267.492188 206.894531 248.242188 206.917969 Z M 248.242188 113.925781 C 241.824219 113.925781 236.621094 119.128906 236.621094 125.546875 L 236.621094 172.042969 C 236.621094 178.464844 241.824219 183.667969 248.242188 183.667969 C 254.664062 183.667969 259.867188 178.464844 259.867188 172.042969 L 259.867188 125.546875 C 259.867188 119.128906 254.664062 113.925781 248.242188 113.925781 Z M 248.242188 113.925781 " fill-opacity="1" fill-rule="nonzero"/><path fill="#ffffff" d="M 341.234375 206.917969 C 315.570312 206.886719 294.769531 186.085938 294.738281 160.421875 L 294.738281 137.171875 C 294.742188 111.492188 315.558594 90.675781 341.238281 90.679688 C 354.46875 90.679688 367.070312 96.316406 375.890625 106.175781 C 380.28125 110.859375 380.042969 118.214844 375.359375 122.605469 C 370.675781 126.996094 363.316406 126.757812 358.929688 122.074219 C 358.804688 121.941406 358.6875 121.808594 358.570312 121.675781 C 350.015625 112.101562 335.320312 111.273438 325.746094 119.828125 C 320.808594 124.242188 317.984375 130.550781 317.988281 137.171875 L 317.988281 160.421875 C 317.972656 173.261719 328.371094 183.679688 341.210938 183.695312 C 349.535156 183.703125 357.230469 179.261719 361.382812 172.042969 L 352.859375 172.042969 C 346.441406 172.042969 341.234375 166.839844 341.234375 160.421875 C 341.234375 154 346.441406 148.796875 352.859375 148.796875 L 376.109375 148.796875 C 382.527344 148.796875 387.730469 154 387.730469 160.421875 C 387.703125 186.085938 366.902344 206.886719 341.234375 206.917969 Z M 341.234375 206.917969 " fill-opacity="1" fill-rule="nonzero"/><g clip-path="url(#86184c6e22)"><path fill="#ffffff" d="M 234.523438 19.386719 C 234.355469 19.03125 234.199219 18.667969 234.042969 18.320312 C 235.527344 17.1875 235.945312 15.984375 235.347656 14.644531 C 234.753906 13.304688 233.5625 12.832031 231.613281 13.195312 C 231.144531 12.207031 230.675781 11.214844 230.203125 10.21875 C 229.285156 8.261719 228.378906 6.300781 227.4375 4.355469 C 227.335938 4.136719 227.195312 3.9375 227.023438 3.765625 C 226.851562 3.597656 226.65625 3.457031 226.433594 3.355469 C 226.214844 3.253906 225.980469 3.191406 225.738281 3.167969 C 225.496094 3.144531 225.257812 3.164062 225.023438 3.226562 C 224.785156 3.289062 224.570312 3.386719 224.367188 3.523438 C 224.167969 3.660156 223.996094 3.828125 223.851562 4.027344 C 223.710938 4.222656 223.605469 4.441406 223.539062 4.671875 C 223.46875 4.90625 223.445312 5.144531 223.460938 5.390625 C 223.773438 7.402344 223.128906 9.171875 222.117188 10.832031 C 220.5625 13.355469 218.484375 15.335938 215.890625 16.769531 C 213.582031 18.078125 211.144531 19.183594 208.746094 20.339844 C 205.710938 21.800781 204.332031 24.941406 205.382812 28 C 205.507812 28.359375 205.671875 28.707031 205.863281 29.039062 C 206.058594 29.371094 206.28125 29.679688 206.53125 29.972656 C 206.785156 30.261719 207.0625 30.523438 207.363281 30.761719 C 207.664062 31 207.988281 31.207031 208.328125 31.382812 C 208.667969 31.558594 209.023438 31.703125 209.390625 31.8125 C 209.761719 31.921875 210.136719 31.996094 210.515625 32.03125 C 210.898438 32.070312 211.28125 32.074219 211.664062 32.039062 C 212.046875 32.007812 212.421875 31.9375 212.792969 31.832031 C 213.183594 31.710938 213.375 31.847656 213.574219 32.171875 C 214.15625 33.113281 214.769531 34.035156 215.367188 34.964844 C 216.308594 36.421875 217.242188 37.886719 218.191406 39.339844 C 218.445312 39.765625 218.800781 40.078125 219.257812 40.277344 C 219.714844 40.472656 220.1875 40.519531 220.671875 40.410156 C 221.140625 40.363281 221.550781 40.175781 221.894531 39.851562 C 222.238281 39.527344 222.449219 39.128906 222.527344 38.660156 C 222.609375 37.988281 222.515625 37.339844 222.246094 36.714844 C 221.472656 34.898438 220.585938 33.125 219.746094 31.34375 C 221.9375 30.117188 222.148438 29.757812 221.691406 28.070312 C 221.769531 28.011719 221.851562 27.964844 221.9375 27.925781 C 224.492188 27.097656 227.101562 26.835938 229.765625 27.148438 C 231.640625 27.328125 233.257812 28.0625 234.625 29.355469 C 235.535156 30.277344 236.628906 30.4375 237.53125 29.792969 C 238.417969 29.164062 238.625 28.117188 238.085938 26.960938 C 236.898438 24.433594 235.710938 21.910156 234.523438 19.386719 Z M 233.976562 15.195312 C 234.296875 15.824219 234.125 16.359375 233.363281 16.910156 L 232.289062 14.636719 C 233.144531 14.402344 233.671875 14.597656 233.976562 15.195312 Z M 212.085938 30.449219 C 211.558594 30.582031 211.027344 30.621094 210.492188 30.558594 C 209.953125 30.496094 209.445312 30.339844 208.964844 30.089844 C 208.484375 29.839844 208.0625 29.515625 207.703125 29.109375 C 207.339844 28.707031 207.066406 28.253906 206.871094 27.746094 C 206.65625 27.25 206.535156 26.734375 206.503906 26.195312 C 206.472656 25.65625 206.539062 25.128906 206.699219 24.609375 C 206.859375 24.09375 207.101562 23.621094 207.433594 23.195312 C 207.761719 22.765625 208.15625 22.40625 208.613281 22.121094 C 209.917969 21.339844 211.34375 20.761719 212.792969 20.050781 C 214.125 22.886719 215.425781 25.644531 216.773438 28.507812 C 215.25 29.246094 213.683594 29.894531 212.085938 30.449219 Z M 220.941406 37.359375 C 221.28125 38.085938 221.195312 38.628906 220.664062 38.863281 C 220.046875 39.136719 219.625 38.859375 219.285156 38.324219 C 217.761719 35.933594 216.21875 33.554688 214.640625 31.109375 L 217.347656 29.828125 C 217.457031 30.019531 217.5625 30.179688 217.644531 30.355469 C 218.746094 32.6875 219.84375 35.023438 220.941406 37.359375 Z M 219.089844 29.890625 C 218.984375 29.679688 218.875 29.46875 218.722656 29.167969 L 220.132812 28.542969 C 220.550781 29.351562 220.453125 29.46875 219.089844 29.890625 Z M 236.890625 28.324219 C 236.839844 28.441406 236.761719 28.527344 236.652344 28.585938 C 236.34375 28.511719 235.933594 28.539062 235.738281 28.351562 C 234.234375 26.917969 232.449219 26.054688 230.390625 25.773438 C 226.925781 25.195312 223.582031 25.777344 220.3125 26.917969 C 219.582031 27.171875 218.871094 27.476562 218.070312 27.789062 C 216.746094 24.972656 215.457031 22.230469 214.238281 19.640625 C 216.113281 18.335938 218.007812 17.179688 219.710938 15.789062 C 222.167969 13.785156 224.085938 11.332031 224.792969 8.140625 C 224.941406 7.351562 225 6.554688 224.976562 5.75 C 224.976562 5.3125 224.828125 4.84375 225.363281 4.671875 C 225.96875 4.476562 226.109375 5.003906 226.300781 5.40625 C 228.269531 9.589844 230.238281 13.773438 232.207031 17.953125 C 233.671875 21.066406 235.136719 24.179688 236.601562 27.292969 C 236.65625 27.410156 236.695312 27.484375 236.753906 27.632812 C 236.953125 28.136719 236.90625 28.28125 236.890625 28.328125 Z M 231.636719 3.492188 C 231.492188 3.183594 231.519531 2.890625 231.714844 2.609375 C 232.207031 1.875 232.707031 1.140625 233.210938 0.421875 C 233.402344 0.136719 233.664062 -0.00390625 234.003906 0 C 234.359375 0.0117188 234.625 0.171875 234.804688 0.480469 L 234.863281 0.566406 L 234.839844 0.671875 C 234.832031 0.726562 234.820312 0.785156 234.816406 0.847656 C 234.804688 1.027344 234.757812 1.195312 234.667969 1.351562 C 234.171875 2.121094 233.640625 2.886719 233.136719 3.601562 C 233.046875 3.734375 232.929688 3.839844 232.785156 3.910156 C 232.480469 4.054688 232.191406 4.027344 231.917969 3.828125 C 231.796875 3.742188 231.699219 3.628906 231.632812 3.492188 Z M 245.320312 25.835938 L 245.257812 25.917969 L 245.152344 25.929688 C 245.09375 25.941406 245.039062 25.953125 244.980469 25.96875 C 244.808594 26.019531 244.632812 26.027344 244.453125 26 C 243.5625 25.785156 242.664062 25.539062 241.824219 25.304688 C 241.667969 25.265625 241.53125 25.1875 241.414062 25.074219 C 241.179688 24.835938 241.109375 24.554688 241.203125 24.234375 C 241.269531 24.003906 241.40625 23.828125 241.613281 23.710938 C 241.824219 23.59375 242.046875 23.566406 242.277344 23.632812 C 243.136719 23.847656 243.992188 24.074219 244.839844 24.3125 C 245.171875 24.394531 245.390625 24.597656 245.503906 24.921875 C 245.609375 25.257812 245.546875 25.5625 245.320312 25.835938 Z M 242.097656 11.679688 C 241.328125 12.175781 240.527344 12.65625 239.777344 13.097656 C 239.636719 13.183594 239.488281 13.230469 239.328125 13.234375 C 238.988281 13.238281 238.738281 13.097656 238.570312 12.804688 C 238.449219 12.59375 238.417969 12.375 238.480469 12.140625 C 238.542969 11.90625 238.675781 11.730469 238.886719 11.609375 C 239.636719 11.140625 240.394531 10.679688 241.152344 10.230469 C 241.441406 10.050781 241.742188 10.03125 242.050781 10.175781 C 242.367188 10.332031 242.542969 10.589844 242.582031 10.941406 L 242.601562 11.046875 L 242.53125 11.132812 C 242.503906 11.179688 242.472656 11.226562 242.441406 11.28125 C 242.359375 11.441406 242.242188 11.574219 242.097656 11.679688 Z M 242.097656 11.679688 " fill-opacity="1" fill-rule="nonzero"/></g></svg>